<svg width="187" height="128" viewBox="0 0 187 128" fill="none" xmlns="http://www.w3.org/2000/svg">
<path d="M2.64205 64.0152V29.1061H11.0795V43.1174H24.8352V29.1061H33.2557V64.0152H24.8352V49.9868H11.0795V64.0152H2.64205ZM45.929 64.4583C44.2585 64.4583 42.7756 64.1799 41.4801 63.6231C40.196 63.0549 39.179 62.2027 38.429 61.0663C37.6903 59.9186 37.321 58.4811 37.321 56.7538C37.321 55.2993 37.5767 54.072 38.0881 53.072C38.5994 52.072 39.304 51.2595 40.2017 50.6345C41.0994 50.0095 42.1335 49.5379 43.304 49.2197C44.4744 48.8902 45.7244 48.6686 47.054 48.5549C48.5426 48.4186 49.7415 48.2765 50.6506 48.1288C51.5597 47.9697 52.2188 47.7481 52.6278 47.464C53.0483 47.1686 53.2585 46.7538 53.2585 46.2197V46.1345C53.2585 45.2595 52.9574 44.5833 52.3551 44.1061C51.7528 43.6288 50.9403 43.3902 49.9176 43.3902C48.8153 43.3902 47.929 43.6288 47.2585 44.1061C46.5881 44.5833 46.1619 45.2424 45.9801 46.0833L38.2926 45.8106C38.5199 44.2197 39.1051 42.7993 40.0483 41.5493C41.0028 40.2879 42.3097 39.2993 43.9688 38.5833C45.6392 37.8561 47.6449 37.4924 49.9858 37.4924C51.6563 37.4924 53.196 37.6913 54.6051 38.089C56.0142 38.4754 57.2415 39.0436 58.2869 39.7936C59.3324 40.5322 60.1392 41.4413 60.7074 42.5208C61.2869 43.6004 61.5767 44.8333 61.5767 46.2197V64.0152H53.7358V60.3674H53.5312C53.0653 61.2538 52.4688 62.0038 51.7415 62.6174C51.0256 63.2311 50.179 63.6913 49.2017 63.9981C48.2358 64.3049 47.1449 64.4583 45.929 64.4583ZM48.5028 59.0038C49.4006 59.0038 50.2074 58.822 50.9233 58.4583C51.6506 58.0947 52.2301 57.5947 52.6619 56.9583C53.0938 56.3106 53.3097 55.5606 53.3097 54.7083V52.2197C53.071 52.3447 52.7813 52.4583 52.4403 52.5606C52.1108 52.6629 51.7472 52.7595 51.3494 52.8504C50.9517 52.9413 50.5426 53.0208 50.1222 53.089C49.7017 53.1572 49.2983 53.2197 48.9119 53.2765C48.1278 53.4015 47.4574 53.5947 46.9006 53.8561C46.3551 54.1174 45.9347 54.4583 45.6392 54.8788C45.3551 55.2879 45.2131 55.7765 45.2131 56.3447C45.2131 57.2083 45.5199 57.8674 46.1335 58.322C46.7585 58.7765 47.5483 59.0038 48.5028 59.0038ZM66.6733 64.0152V29.1061H75.0085V42.3163H75.179C75.5199 41.5208 76.0028 40.7538 76.6278 40.0152C77.2642 39.2765 78.071 38.6743 79.0483 38.2083C80.0369 37.7311 81.2188 37.4924 82.5938 37.4924C84.4119 37.4924 86.1108 37.9697 87.6903 38.9243C89.2812 39.8788 90.5653 41.3504 91.5426 43.339C92.5199 45.3277 93.0085 47.8618 93.0085 50.9413C93.0085 53.9072 92.5369 56.3902 91.5938 58.3902C90.6619 60.3902 89.4006 61.8902 87.8097 62.8902C86.2301 63.8902 84.4744 64.3902 82.5426 64.3902C81.2244 64.3902 80.0824 64.1743 79.1165 63.7424C78.1506 63.3106 77.3381 62.7424 76.679 62.0379C76.0312 61.3333 75.5313 60.5777 75.179 59.7708H74.9233V64.0152H66.6733ZM74.8381 50.9243C74.8381 52.3333 75.0256 53.5606 75.4006 54.6061C75.7869 55.6515 76.3381 56.464 77.054 57.0436C77.7812 57.6118 78.6506 57.8958 79.6619 57.8958C80.6847 57.8958 81.554 57.6118 82.2699 57.0436C82.9858 56.464 83.5256 55.6515 83.8892 54.6061C84.2642 53.5606 84.4517 52.3333 84.4517 50.9243C84.4517 49.5152 84.2642 48.2936 83.8892 47.2595C83.5256 46.2254 82.9858 45.4243 82.2699 44.8561C81.5653 44.2879 80.696 44.0038 79.6619 44.0038C78.6392 44.0038 77.7699 44.2822 77.054 44.839C76.3381 45.3958 75.7869 46.1913 75.4006 47.2254C75.0256 48.2595 74.8381 49.4924 74.8381 50.9243ZM97.3764 64.0152V37.8333H105.712V64.0152H97.3764ZM101.553 34.7822C100.382 34.7822 99.3764 34.3958 98.5355 33.6231C97.6946 32.839 97.2741 31.8958 97.2741 30.7936C97.2741 29.7027 97.6946 28.7708 98.5355 27.9981C99.3764 27.214 100.382 26.822 101.553 26.822C102.734 26.822 103.74 27.214 104.57 27.9981C105.411 28.7708 105.831 29.7027 105.831 30.7936C105.831 31.8958 105.411 32.839 104.57 33.6231C103.74 34.3958 102.734 34.7822 101.553 34.7822ZM125.795 37.8333V43.9697H109.278V37.8333H125.795ZM112.739 31.5606H121.074V55.7822C121.074 56.2936 121.153 56.7083 121.312 57.0265C121.483 57.3333 121.727 57.5549 122.045 57.6913C122.364 57.8163 122.744 57.8788 123.188 57.8788C123.506 57.8788 123.841 57.8504 124.193 57.7936C124.557 57.7254 124.83 57.6686 125.011 57.6231L126.273 63.6402C125.875 63.7538 125.313 63.8958 124.585 64.0663C123.869 64.2368 123.011 64.3447 122.011 64.3902C120.057 64.4811 118.381 64.2538 116.983 63.7083C115.597 63.1515 114.534 62.2879 113.795 61.1174C113.068 59.947 112.716 58.4754 112.739 56.7027V31.5606ZM152.578 45.8277L144.925 46.0322C144.845 45.4868 144.629 45.0038 144.277 44.5833C143.925 44.1515 143.464 43.8163 142.896 43.5777C142.339 43.3277 141.692 43.2027 140.953 43.2027C139.987 43.2027 139.163 43.3958 138.482 43.7822C137.811 44.1686 137.482 44.6913 137.493 45.3504C137.482 45.8618 137.686 46.3049 138.107 46.6799C138.538 47.0549 139.305 47.3561 140.408 47.5833L145.453 48.5379C148.067 49.0379 150.01 49.8674 151.283 51.0265C152.567 52.1856 153.214 53.7197 153.226 55.6288C153.214 57.4243 152.68 58.9868 151.624 60.3163C150.578 61.6458 149.146 62.6799 147.328 63.4186C145.51 64.1458 143.43 64.5095 141.089 64.5095C137.351 64.5095 134.402 63.7424 132.243 62.2083C130.095 60.6629 128.868 58.5947 128.561 56.0038L136.794 55.7993C136.976 56.7538 137.447 57.4811 138.209 57.9811C138.97 58.4811 139.942 58.7311 141.124 58.7311C142.192 58.7311 143.061 58.5322 143.732 58.1345C144.402 57.7368 144.743 57.2083 144.754 56.5493C144.743 55.9583 144.482 55.4868 143.97 55.1345C143.459 54.7708 142.658 54.4868 141.567 54.2822L136.999 53.4129C134.374 52.9356 132.419 52.0549 131.135 50.7708C129.851 49.4754 129.214 47.8277 129.226 45.8277C129.214 44.0777 129.68 42.5833 130.624 41.3447C131.567 40.0947 132.908 39.1402 134.646 38.4811C136.385 37.822 138.436 37.4924 140.8 37.4924C144.345 37.4924 147.141 38.2368 149.186 39.7254C151.232 41.2027 152.362 43.2368 152.578 45.8277Z" fill="white"/>
<rect x="0.5" y="1.48486" width="15" height="15" rx="3.5" fill="#18181B" stroke="#27272A"/>
<rect x="20.5" y="1.48486" width="15" height="15" rx="3.5" fill="#4C1D95" stroke="#6D28D9"/>
<rect x="40.5" y="1.48486" width="15" height="15" rx="3.5" fill="#5B21B6" stroke="#7C3AED"/>
<rect x="60.5" y="1.48486" width="15" height="15" rx="3.5" fill="#6D28D9" stroke="#8B5CF6"/>
<rect x="80.5" y="1.48486" width="15" height="15" rx="3.5" fill="#7C3AED" stroke="#A78BFA"/>
<rect x="100.5" y="1.48486" width="15" height="15" rx="3.5" fill="#8B5CF6" stroke="#C4B5FD"/>
</svg>